<svg width="256" height="256" viewBox="0 0 256 256" fill="none" xmlns="http://www.w3.org/2000/svg">
<path d="M194.214 168.894L200.967 143.693C203.269 135.1 202.064 125.944 197.616 118.239C193.168 110.534 185.841 104.913 177.248 102.61L162.847 98.7514C159.983 97.9839 157.541 96.1099 156.058 93.5417C154.575 90.9735 154.173 87.9215 154.941 85.0571L158.799 70.6567C161.102 62.0634 159.897 52.9074 155.448 45.2028C151 37.4983 143.674 31.8764 135.08 29.5738L117.08 24.7506M87.6233 163.484L85.694 170.684M122.212 149.601L114.495 178.402M156.801 135.717L143.296 186.119M138.68 30.5385L91.8789 17.9981C85.9171 16.4006 79.7821 19.9427 78.1846 25.9045L33.8109 191.51C32.2134 197.471 35.7555 203.606 41.7173 205.204L164.121 238.002C170.083 239.599 176.218 236.057 177.815 230.095L201.932 140.093C208.072 117.177 204.857 92.7612 192.995 72.2158C181.133 51.6704 161.596 36.6786 138.68 30.5385Z" stroke="#4CDE81" stroke-width="15" stroke-linecap="round" stroke-linejoin="round"/>
</svg>
